<svg width="13" height="13" viewBox="0 0 13 13" fill="none" xmlns="http://www.w3.org/2000/svg">
<path d="M0 6.5C0 2.92029 2.90459 0 6.5 0C10.0954 0 13 2.90459 13 6.5C13 10.0954 10.0954 13 6.5 13C2.90459 13 0 10.0954 0 6.5ZM0.97343 6.5C0.97343 9.5616 3.45411 12.0266 6.5 12.0266C9.56159 12.0266 12.0266 9.54589 12.0266 6.5C12.0266 3.43841 9.54589 0.97343 6.5 0.97343C3.43841 0.97343 0.97343 3.45411 0.97343 6.5Z" fill="white"/>
<path d="M0.627747 6.50002C0.627747 3.26572 3.24973 0.643738 6.48403 0.643738C9.71833 0.643738 12.356 3.26572 12.356 6.50002C12.356 9.73432 9.73403 12.3563 6.48403 12.3563C3.26543 12.372 0.627747 9.75002 0.627747 6.50002Z" fill="#19AD49"/>
<path d="M9.78107 1.97834C9.78107 1.39742 10.2521 0.910706 10.8487 0.910706C11.4296 0.910706 11.9163 1.38172 11.9163 1.97834C11.9163 2.55926 11.4453 3.04597 10.8487 3.04597C10.2678 3.04597 9.78107 2.57496 9.78107 1.97834Z" fill="white"/>
<path d="M10.2839 1.97827C10.2839 1.66426 10.5351 1.41306 10.8492 1.41306C11.1632 1.41306 11.4301 1.66426 11.4301 1.97827C11.4301 2.29228 11.1789 2.54349 10.8492 2.54349C10.5351 2.55919 10.2839 2.30798 10.2839 1.97827Z" fill="#9EE52D"/>
<path d="M3.32884 9.51446C3.37594 9.46736 3.40734 9.45166 3.45444 9.42026C3.50154 9.40456 3.54864 9.38885 3.61145 9.38885C3.65855 9.38885 3.70565 9.40456 3.75275 9.42026C3.79985 9.43596 3.84695 9.46736 3.87835 9.51446L3.94116 9.56156L3.83125 9.67146L3.76845 9.60866L3.68995 9.57726L3.59574 9.56156L3.51724 9.57726L3.43874 9.62436L3.39164 9.70286L3.37594 9.79707L3.39164 9.89127L3.43874 9.96977C3.48584 10.0169 3.54864 10.0483 3.61145 10.0483L3.70565 10.0326L3.78415 9.98547L3.84695 9.93837L3.95686 10.0483L3.89405 10.1111C3.86265 10.1425 3.81555 10.1739 3.76845 10.2053C3.72135 10.221 3.67425 10.2367 3.62715 10.2367C3.58004 10.2367 3.53294 10.221 3.47014 10.2053C3.42304 10.1896 3.37594 10.1582 3.34454 10.1111C3.31314 10.064 3.28174 10.0326 3.25033 9.98547C3.23463 9.93837 3.21893 9.89127 3.21893 9.82847C3.21893 9.78137 3.23463 9.73427 3.25033 9.67146C3.25033 9.59296 3.28174 9.56156 3.32884 9.51446Z" fill="white"/>
<path d="M4.6317 9.92264L4.7416 10.0325L4.6788 10.0796C4.6474 10.111 4.6003 10.1424 4.55319 10.1738C4.50609 10.1895 4.45899 10.2052 4.39619 10.2052C4.34909 10.2052 4.28629 10.1895 4.23918 10.1738C4.19208 10.1581 4.14498 10.1267 4.11358 10.0796C4.08218 10.0482 4.05078 10.0011 4.03508 9.95404C4.01938 9.90694 4.00368 9.85984 4.00368 9.79704C4.00368 9.74994 4.01938 9.70283 4.03508 9.65573C4.05078 9.60863 4.08218 9.56153 4.11358 9.53013C4.16068 9.49873 4.19208 9.46733 4.23918 9.43593C4.28629 9.42023 4.33339 9.40453 4.39619 9.40453C4.44329 9.40453 4.49039 9.42023 4.55319 9.43593C4.6003 9.45163 4.6474 9.48303 4.6788 9.53013L4.7416 9.57723L4.30199 10.0168C4.34909 10.0325 4.39619 10.0482 4.44329 10.0325C4.49039 10.0325 4.53749 10.0011 4.5689 9.96974L4.6317 9.92264ZM4.23918 9.62433C4.19208 9.67143 4.16068 9.73424 4.16068 9.79704C4.16068 9.82844 4.17638 9.87554 4.19208 9.90694L4.25489 9.84414C4.28629 9.81274 4.31769 9.78134 4.34909 9.74994L4.44329 9.65573L4.52179 9.59293C4.47469 9.57723 4.42759 9.56153 4.38049 9.57723C4.31769 9.57723 4.27059 9.59293 4.23918 9.62433Z" fill="white"/>
<path d="M4.82015 9.64003C4.83585 9.59293 4.86725 9.54583 4.89865 9.51443C4.93005 9.48303 4.97715 9.45163 5.02425 9.43593C5.07135 9.42023 5.11846 9.40453 5.18126 9.40453C5.24406 9.40453 5.29116 9.42023 5.33826 9.43593C5.38536 9.45163 5.43246 9.48303 5.46387 9.51443C5.49527 9.54583 5.52667 9.59293 5.54237 9.64003C5.55807 9.68713 5.57377 9.73424 5.57377 9.79704V10.2052H5.41676V9.81274L5.40106 9.71854L5.36966 9.62433L5.29116 9.57723L5.19696 9.56153L5.10276 9.57723L5.02425 9.62433L4.97715 9.70284L4.96145 9.79704V10.2052H4.80445V9.81274C4.78875 9.74994 4.80445 9.68713 4.82015 9.64003Z" fill="white"/>
<path d="M5.76226 9.51446C5.80936 9.46736 5.84076 9.45166 5.88787 9.42026C5.93497 9.40456 5.98207 9.38885 6.04487 9.38885C6.09197 9.38885 6.13907 9.40456 6.18617 9.42026C6.23328 9.43596 6.28038 9.46736 6.32748 9.51446L6.39028 9.56156L6.28038 9.67146L6.21758 9.60866L6.13907 9.57726L6.04487 9.56156L5.95067 9.57726L5.87216 9.62436L5.82506 9.70286L5.80936 9.79707L5.82506 9.89127L5.87216 9.96977C5.91927 10.0169 5.98207 10.0483 6.04487 10.0483L6.13907 10.0326L6.21758 9.98547L6.28038 9.93837L6.39028 10.0483L6.32748 10.1111C6.29608 10.1425 6.24898 10.1739 6.18617 10.2053C6.13907 10.221 6.09197 10.2367 6.04487 10.2367C5.99777 10.2367 5.95067 10.221 5.88787 10.2053C5.84076 10.1896 5.79366 10.1582 5.76226 10.1111C5.73086 10.064 5.69946 10.0326 5.66806 9.98547C5.65236 9.93837 5.63666 9.89127 5.63666 9.82847C5.63666 9.78137 5.65236 9.73427 5.66806 9.67146C5.69946 9.59296 5.73086 9.56156 5.76226 9.51446Z" fill="white"/>
<path d="M6.45306 9.79704C6.45306 9.73424 6.46876 9.68713 6.48446 9.64003C6.50016 9.59293 6.53157 9.54583 6.56297 9.51443C6.59437 9.48303 6.64147 9.45163 6.68857 9.43593C6.73567 9.42023 6.78277 9.40453 6.84558 9.40453C6.90838 9.40453 6.95548 9.42023 7.00258 9.43593C7.04968 9.45163 7.09678 9.48303 7.12818 9.51443C7.15959 9.54583 7.19099 9.59293 7.20669 9.64003C7.22239 9.68713 7.23809 9.73424 7.23809 9.79704C7.23809 9.84414 7.22239 9.90694 7.20669 9.95404C7.19099 10.0011 7.15959 10.0482 7.12818 10.0796C7.09678 10.111 7.04968 10.1424 7.00258 10.1581C6.95548 10.1738 6.90838 10.1896 6.84558 10.1896C6.78277 10.1896 6.73567 10.1738 6.68857 10.1581C6.64147 10.1424 6.59437 10.111 6.56297 10.0796C6.53157 10.0482 6.50016 10.0011 6.48446 9.95404C6.45306 9.90694 6.45306 9.85984 6.45306 9.79704ZM6.61007 9.79704L6.62577 9.89124L6.67287 9.96974L6.75137 10.0168C6.78277 10.0325 6.81417 10.0325 6.84558 10.0325L6.93978 10.0168L7.01828 9.96974L7.06538 9.89124L7.08108 9.79704L7.06538 9.70284L7.01828 9.62433L6.93978 9.57723L6.84558 9.56153C6.81417 9.56153 6.78277 9.56153 6.75137 9.57723L6.67287 9.62433L6.62577 9.70284L6.61007 9.79704Z" fill="white"/>
<path d="M8.02284 9.40453V9.56153H7.53612L7.47332 9.57723L7.45762 9.64003L7.47332 9.70284L7.53612 9.71854H7.85013L7.94433 9.73424L8.02284 9.78134L8.06994 9.85984L8.08564 9.95404L8.06994 10.0482L8.02284 10.1267L7.94433 10.1739L7.85013 10.1896H7.36342V10.0325H7.85013L7.91293 10.0168L7.94433 9.95404L7.91293 9.89124L7.85013 9.87554H7.53612C7.50472 9.87554 7.47332 9.87554 7.44192 9.85984L7.36342 9.81274L7.31631 9.73424L7.30061 9.64003L7.31631 9.54583L7.36342 9.46733L7.44192 9.42023C7.47332 9.40453 7.50472 9.40453 7.53612 9.40453H8.02284Z" fill="white"/>
<path d="M8.94948 9.40453V9.79704C8.94948 9.84414 8.93378 9.90694 8.91808 9.95404C8.90238 10.0011 8.87098 10.0482 8.82388 10.0796C8.79248 10.111 8.74538 10.1424 8.69827 10.1581C8.65117 10.1738 8.60407 10.1896 8.54127 10.1896C8.49417 10.1896 8.43137 10.1738 8.38427 10.1581C8.33716 10.1424 8.29006 10.111 8.25866 10.0796C8.22726 10.0482 8.19586 10.0011 8.18016 9.95404C8.16446 9.90694 8.14876 9.85984 8.14876 9.79704V9.40453H8.30576V9.79704L8.32146 9.89124L8.36856 9.96974L8.44707 10.0168C8.47847 10.0325 8.50987 10.0325 8.54127 10.0325L8.63547 10.0168L8.71397 9.96974L8.76108 9.89124L8.77678 9.79704V9.40453H8.94948Z" fill="white"/>
<path d="M9.78118 9.07498V9.7972C9.78118 9.84431 9.76548 9.90711 9.74978 9.95421C9.73408 10.0013 9.70268 10.0484 9.67127 10.0798C9.63987 10.1112 9.59277 10.1426 9.54567 10.1583C9.49857 10.174 9.45147 10.1897 9.38867 10.1897C9.34156 10.1897 9.27876 10.174 9.23166 10.1583C9.18456 10.1426 9.13746 10.1112 9.10606 10.0798C9.07466 10.0484 9.04326 10.0013 9.01185 9.95421C8.99615 9.90711 8.98045 9.86001 8.98045 9.7972C8.98045 9.7344 8.99615 9.6873 9.01185 9.6402C9.02756 9.5931 9.05896 9.546 9.10606 9.5146C9.13746 9.48319 9.18456 9.45179 9.23166 9.43609C9.27876 9.42039 9.32586 9.40469 9.38867 9.40469H9.62417V9.09068H9.78118V9.07498ZM9.38867 10.0327L9.48287 10.017L9.56137 9.96991L9.60847 9.89141L9.62417 9.7972V9.5617H9.38867L9.29446 9.5774L9.21596 9.6245L9.16886 9.703L9.15316 9.7972L9.16886 9.89141L9.21596 9.96991L9.29446 10.017L9.38867 10.0327Z" fill="white"/>
<path d="M10.7076 5.77782C10.6134 5.77782 10.5349 5.79352 10.4564 5.82492C10.3779 5.85633 10.2994 5.90343 10.2366 5.96623C10.1738 6.02903 10.1266 6.09183 10.0952 6.17033C10.0638 6.24884 10.0481 6.34304 10.0481 6.43724C10.0481 6.53145 10.0638 6.60995 10.0952 6.68845C10.1266 6.76695 10.1738 6.84546 10.2366 6.90826C10.2994 6.97106 10.3622 7.01816 10.4564 7.04956C10.5349 7.08096 10.6291 7.09666 10.7076 7.09666C10.8018 7.09666 10.8803 7.08096 10.9588 7.04956C11.0373 7.01816 11.1158 6.97106 11.1786 6.90826C11.2414 6.84546 11.2885 6.76695 11.3199 6.68845C11.3513 6.60995 11.367 6.51575 11.367 6.43724C11.3513 6.24884 11.2885 6.10753 11.1786 5.98193C11.0687 5.85633 10.9117 5.77782 10.7076 5.77782ZM10.7233 5.30681C10.8803 5.30681 11.0216 5.33821 11.1472 5.40101C11.2885 5.46381 11.3984 5.54232 11.5083 5.65222C11.6182 5.76212 11.6967 5.87203 11.7595 6.01333C11.8223 6.15463 11.8537 6.29594 11.8537 6.45294C11.8537 6.60995 11.8223 6.75125 11.7595 6.89256C11.6967 7.03386 11.6182 7.14376 11.524 7.25367C11.4298 7.36357 11.3042 7.44207 11.1629 7.48918C11.0216 7.53628 10.8646 7.56768 10.7076 7.56768C10.5506 7.56768 10.4093 7.53628 10.268 7.48918C10.1266 7.42637 10.0167 7.34787 9.90684 7.25367C9.81264 7.15947 9.71844 7.03386 9.67134 6.89256C9.60853 6.75125 9.57713 6.60995 9.57713 6.45294C9.57713 6.29594 9.60853 6.15463 9.67134 6.01333C9.73414 5.87203 9.81264 5.76212 9.90684 5.66792C10.0167 5.57372 10.1266 5.47951 10.268 5.43241C10.4093 5.35391 10.5663 5.32251 10.7233 5.30681Z" fill="white"/>
<path d="M4.53711 6.59425C4.53711 6.87686 4.3016 7.11236 4.01899 7.11236C3.84629 7.11236 3.70498 7.03386 3.61078 6.90826C3.57938 6.87686 3.56368 6.84546 3.54798 6.79835L3.53228 6.75125V6.73555V6.71985C3.51658 6.67275 3.51658 6.62565 3.51658 6.57855V6.56285V6.51575V5.54232C3.51658 5.47951 3.50088 5.43241 3.45378 5.38531C3.40667 5.33821 3.35957 5.30681 3.29677 5.30681C3.23397 5.30681 3.17117 5.33821 3.12407 5.38531C3.07696 5.43241 3.06126 5.47951 3.06126 5.54232V6.56285C3.06126 6.75125 3.10837 6.89256 3.15547 7.00246L3.17117 7.01816L3.20257 7.08096L3.21827 7.11236L3.24967 7.14376C3.31247 7.23797 3.40667 7.31647 3.50088 7.39497L3.51658 7.41067C3.59508 7.45777 3.65788 7.48918 3.75209 7.52058C3.81489 7.53628 3.89339 7.55198 3.98759 7.56768H4.01899H4.05039H4.0661H4.1446L4.2388 7.55198C4.3016 7.53628 4.3644 7.52058 4.42721 7.48918C4.52141 7.44207 4.61561 7.39497 4.69412 7.31647C4.77262 7.23797 4.83542 7.17517 4.88252 7.08096L4.91392 7.03386L4.92962 6.98676C4.99242 6.84546 5.02383 6.70415 5.02383 6.56285V5.54232C5.02383 5.47951 5.00812 5.43241 4.96102 5.38531C4.91392 5.33821 4.86682 5.32251 4.78832 5.30681C4.72552 5.30681 4.67841 5.33821 4.63131 5.38531C4.58421 5.43241 4.55281 5.47951 4.55281 5.54232V6.51575" fill="white"/>
<path d="M7.69295 7.30083V6.07619C7.69295 5.58948 7.42604 5.32257 6.95503 5.32257C6.76662 5.32257 6.56252 5.41677 6.46832 5.55808L6.40551 5.65228L6.34271 5.55808C6.26421 5.43247 6.0758 5.33827 5.8717 5.33827C5.40068 5.33827 5.13377 5.62088 5.13377 6.09189V7.33223C5.13377 7.47354 5.22798 7.59914 5.36928 7.59914C5.51059 7.59914 5.60479 7.48924 5.60479 7.33223V7.31653V6.04479C5.60479 5.90349 5.73039 5.79359 5.8717 5.79359C6.013 5.79359 6.15431 5.90349 6.15431 6.04479V7.06532V7.30083V7.31653C6.15431 7.45784 6.26421 7.58344 6.40551 7.58344C6.54682 7.58344 6.65672 7.47354 6.65672 7.31653V7.30083V7.06532V6.53151V6.01339C6.65672 5.87209 6.78232 5.76218 6.92363 5.76218C7.06493 5.76218 7.19054 5.87209 7.19054 6.01339V7.28513V7.30083C7.19054 7.44214 7.30044 7.56774 7.44175 7.56774C7.59875 7.56774 7.69295 7.44214 7.69295 7.30083Z" fill="white"/>
<path d="M9.56171 6.95536C9.56171 6.70415 9.38901 6.48434 9.1535 6.39014C9.37331 6.29594 9.49891 6.10753 9.49891 5.87203C9.49891 5.55802 9.232 5.30681 8.87089 5.30681H8.08586C7.96026 5.30681 7.85036 5.41671 7.85036 5.54232V7.31647V7.33217C7.85036 7.45777 7.96026 7.56768 8.08586 7.56768H8.85519H8.90229H8.94939C8.99649 7.56768 9.0436 7.55198 9.0907 7.53628C9.37331 7.45777 9.56171 7.23797 9.56171 6.95536ZM8.77669 5.74642C8.91799 5.74642 9.0436 5.85633 9.0436 5.99763C9.0436 6.13893 8.93369 6.24884 8.77669 6.24884H8.33707V5.74642H8.77669ZM8.33707 6.62565H8.83949C8.98079 6.62565 9.0907 6.73555 9.0907 6.87686C9.0907 7.01816 8.98079 7.12806 8.83949 7.12806H8.33707V6.62565Z" fill="white"/>
<path d="M2.88857 6.75125V6.70415V6.48434V5.88773V5.65222C2.88857 5.60512 2.88857 5.54232 2.87287 5.49521C2.85717 5.43241 2.81006 5.36961 2.74726 5.33821C2.70016 5.30681 2.65306 5.30681 2.59026 5.30681H2.43325H1.88374H1.83663C1.77383 5.30681 1.71103 5.32251 1.67963 5.36961C1.56973 5.46381 1.58543 5.65222 1.71103 5.73072C1.77383 5.77782 1.85233 5.76212 1.91514 5.76212H2.22915H2.43325V5.85633V6.43724V6.67275V6.75125C2.43325 6.97106 2.24485 7.15947 2.02504 7.15947C1.80523 7.15947 1.63253 6.98676 1.61683 6.76695V6.75125V6.73555C1.61683 6.60995 1.50692 6.51575 1.38132 6.51575C1.25572 6.51575 1.14581 6.62565 1.14581 6.75125V6.78265C1.17721 7.25367 1.53833 7.56768 2.02504 7.56768C2.91997 7.56768 2.90427 6.65705 2.88857 6.75125Z" fill="white"/>
</svg>
