<svg width="32" height="32" viewBox="0 0 32 32" fill="none" xmlns="http://www.w3.org/2000/svg">
<rect width="32" height="32" rx="16" fill="#EEEEEE"/>
<g clip-path="url(#clip0_3959_3629)">
<mask id="mask0_3959_3629" style="mask-type:alpha" maskUnits="userSpaceOnUse" x="2" y="5" width="28" height="29">
<path d="M28.8187 28.2106C28.0595 26.5286 24.3538 25.4156 21.8916 24.3707C19.4294 23.3258 19.7659 22.6923 19.6774 21.8256C19.6654 21.7068 19.6574 21.5804 19.6526 21.4509C20.4974 20.7326 21.1886 19.7478 21.6358 18.6109C21.6358 18.6109 21.6593 18.5531 21.666 18.5355C21.7604 18.2886 21.8441 18.0311 21.9161 17.7686C22.4807 17.6588 22.8095 17.0684 22.9351 16.5224C23.062 16.3015 23.3258 15.7568 23.2652 15.1388C23.1874 14.3433 22.8535 13.9757 22.4785 13.8217C22.4791 13.7739 22.4793 13.7285 22.4793 13.6838C22.4793 12.6709 22.3815 11.2135 22.1881 10.2556C22.1468 9.99126 22.0847 9.7251 22.0039 9.46394C21.6404 8.29028 20.8801 7.23565 19.8638 6.49393C18.8147 5.72857 17.3315 5.32422 16.0138 5.32422C14.6962 5.32422 13.2127 5.72857 12.1639 6.49393C11.1476 7.23565 10.3873 8.29028 10.0238 9.46394C9.94301 9.7251 9.88088 9.99126 9.83954 10.2556C9.6462 11.2133 9.54833 12.6704 9.54833 13.6838C9.54833 13.725 9.5486 13.7668 9.54913 13.8104C9.16272 13.9573 8.81418 14.3233 8.73418 15.1386C8.67365 15.7565 8.93739 16.3012 9.06432 16.5222C9.19206 17.0776 9.5302 17.679 10.1129 17.7736C10.1852 18.0374 10.2702 18.2964 10.3657 18.5455C10.3718 18.5618 10.3785 18.5776 10.3849 18.5936L10.3937 18.6151C10.8497 19.772 11.5588 20.7707 12.4247 21.4911C12.4196 21.6064 12.4121 21.7186 12.4012 21.825C12.3127 22.6915 12.5716 23.3253 10.1094 24.3702C7.64722 25.4151 3.94152 26.5281 3.1823 28.2101C2.42308 29.8919 2.72629 30.8817 2.72629 30.8817L16.0138 33.9425L29.2728 30.8817C29.2728 30.8817 29.5782 29.8924 28.8187 28.2106Z" fill="black"/>
</mask>
<g mask="url(#mask0_3959_3629)">
<rect width="32" height="31.946" rx="15.973" fill="#CCCCCC"/>
</g>
</g>
<defs>
<clipPath id="clip0_3959_3629">
<rect width="32" height="30.6689" fill="white" transform="translate(0 1.33105)"/>
</clipPath>
</defs>
</svg>
